<svg xmlns="http://www.w3.org/2000/svg" viewBox="0 0 128 128" role="img" aria-label="Beaver">
  <defs>
    <clipPath id="beaver-clip"><circle cx="64" cy="64" r="64"/></clipPath>
  </defs>
  <g clip-path="url(#beaver-clip)">
    <rect width="128" height="128" fill="#6E4A30"/>
    <circle cx="64" cy="70" r="50" fill="#8B5E3C"/>
    <ellipse cx="38" cy="48" rx="12" ry="10" fill="#6E4A30"/>
    <ellipse cx="90" cy="48" rx="12" ry="10" fill="#6E4A30"/>
    <ellipse cx="38" cy="48" rx="6" ry="5" fill="#C4A574"/>
    <ellipse cx="90" cy="48" rx="6" ry="5" fill="#C4A574"/>
    <ellipse cx="64" cy="76" rx="36" ry="32" fill="#A06C45"/>
    <ellipse cx="64" cy="92" rx="18" ry="12" fill="#D9C2A6"/>
    <rect x="54" y="90" width="8" height="14" rx="2" fill="#F4E4C8"/>
    <rect x="66" y="90" width="8" height="14" rx="2" fill="#F4E4C8"/>
    <ellipse cx="48" cy="70" rx="6" ry="5" fill="#1C211E"/>
    <ellipse cx="80" cy="70" rx="6" ry="5" fill="#1C211E"/>
    <circle cx="50" cy="68.5" r="1.6" fill="#F4E4C8"/>
    <circle cx="82" cy="68.5" r="1.6" fill="#F4E4C8"/>
    <ellipse cx="64" cy="84" rx="8" ry="6" fill="#3A271C"/>
  </g>
  <circle cx="64" cy="64" r="61" fill="none" stroke="#F4E4C8" stroke-opacity="0.28" stroke-width="4"/>
</svg>
